<?xml version="1.0" encoding="utf-8"?>
<!-- Uploaded to: SVG Repo, www.svgrepo.com, Generator: SVG Repo Mixer Tools -->
<svg fill="#000000" height="30px" width="30px" version="1.1" id="Layer_1" xmlns="http://www.w3.org/2000/svg" xmlns:xlink="http://www.w3.org/1999/xlink" 
	 viewBox="0 0 256 173" xml:space="preserve">
<path d="M128.3,56.9c15.2,0,27.4-12.2,27.4-27.4S143.5,2,128.3,2c-15.2,0-27.4,12.2-27.4,27.4C100.9,44.7,113.2,56.9,128.3,56.9z
	 M64.6,136.3H15.3c-16,0-16.9-24.4,0.3-24.4h42.7l24.5-36.1C90,66,98.3,61.3,109.9,61.3h36.5c11.7,0,19.9,4.3,27.1,14.6l24.6,36.1
	h43c17.2,0,16.2,24.4,0.6,24.4h-49.3c-3.9,0-8.6-1.4-11.4-5.6l-18.8-26.8l-0.1,67.2H94.8l-0.1-67.2l-18.8,26.8
	C73.2,134.9,68.5,136.3,64.6,136.3z M239.8,83.1c-1,1-2.4,1.1-3.3,0.2c-0.5-0.5-0.7-1.3-0.6-2c0,0,1.1-3.2-1.2-5.5
	c-2.3-2.3-6.6-1.7-9.6,1.3c-3,3-3.6,7.3-1.3,9.6c1.3,1.3,3.3,1.6,5.3,1.2c0.8-0.2,1.6-0.1,2.2,0.5c0.8,0.8,0.8,2.2,0,3l-9.1,9.1
	L192,70.2l9.1-9.1c0.8-0.8,2.2-0.8,3,0c0.5,0.5,0.7,1.1,0.6,1.7c-0.3,2.4-0.3,4.4,1.1,5.9c2.3,2.3,6.6,1.7,9.6-1.3s3.6-7.3,1.3-9.6
	c-2.3-2.3-5.3-1.3-5.3-1.3c-0.5,0.2-1.6,0.1-2.2-0.4c-0.8-0.8-0.8-2.2,0-3l10.5-10.5l10.2,10.2l0,0l0,0c0.8,0.8,2.2,0.8,3,0
	c0.6-0.6,0.7-1.6,0.5-2.2c-0.4-2.1-0.1-4,1.2-5.4c2.3-2.3,6.8-1.9,10.2,1.8c2.9,3.1,3.9,7.8,1.6,10.1c-1.3,1.3-3.2,1.6-5.4,1.2
	c-0.5-0.1-1.6,0-2.2,0.5c-0.8,0.8-0.8,2.2,0,3l0,0l0,0l11.1,11L239.8,83.1z M54.4,58.8c0,3.3-0.8,6-2.5,8.3c-1,1.3-2.8,3.1-5.5,5.2
	l-2.7,2.1c-1.5,1.1-2.4,2.5-2.9,4c-0.3,1-0.5,2.5-0.5,4.5H30.1c0.2-4.3,0.6-7.2,1.2-8.8s2.4-3.5,5.1-5.6l2.8-2.2
	c0.9-0.7,1.7-1.4,2.2-2.2c1-1.4,1.5-2.9,1.5-4.6c0-1.9-0.6-3.7-1.7-5.2C40,52.5,38,51.7,35,51.7c-2.9,0-5,1-6.2,2.9
	c-1.1,1.7-1.7,3.5-1.8,5.4c0,0,0,0.1,0,0.1c0,0.2,0,0.4,0,0.6l0,0l0,0c-0.3,2.8-2.6,4.9-5.5,4.9s-5.2-2.1-5.5-4.9
	c0,0,0.1-1.4,0.1-1.8c0.6-6.3,3.1-10.8,7.4-13.6c3-1.9,6.6-2.9,11-2.9c5.7,0,10.5,1.3,14.2,4.1C52.6,49.3,54.4,53.4,54.4,58.8z
	 M28.4,93.4c0,3.9,3.2,7.1,7.1,7.1s7.1-3.2,7.1-7.1s-3.2-7.1-7.1-7.1S28.4,89.5,28.4,93.4z"/>
</svg>